<svg xmlns="http://www.w3.org/2000/svg" xmlns:xlink="http://www.w3.org/1999/xlink" width="1250.333" height="1250.333" viewBox="0 0 1250.333 1250.333">
  <defs>
    <clipPath id="clip-path">
      <path id="Path_1" data-name="Path 1" d="M625.167,0c345.27,0,625.167,279.9,625.167,625.167s-279.9,625.167-625.167,625.167S0,970.437,0,625.167,279.9,0,625.167,0Z" transform="translate(2256 200)" fill="#fc0"/>
    </clipPath>
  </defs>
  <g id="Group_21" data-name="Group 21" transform="translate(-2019 -1980)">
    <g id="Group_20" data-name="Group 20">
      <g id="Group_19" data-name="Group 19" transform="translate(5606 4643)">
        <g id="Mask_Group_7" data-name="Mask Group 7" transform="translate(-5843 -2863)" clip-path="url(#clip-path)">
          <path id="Path_1-2" data-name="Path 1" d="M625.167,0C872.38,0,1086.079,143.491,1187.4,351.475a622.948,622.948,0,0,1,62.936,273.691c0,345.27-279.9,625.167-625.167,625.167S0,970.437,0,625.167,279.9,0,625.167,0Z" transform="translate(2256 200)" fill="red"/>
          <g id="Component_1_4" data-name="Component 1 – 4" transform="translate(2466 224)">
            <g id="Group_14" data-name="Group 14" transform="translate(-2663.405 -187.927)">
              <g id="Group_15" data-name="Group 15">
                <path id="Path_59" data-name="Path 59" d="M-109.2,76.127-8.811-61.349-3.268-56.1l3.529,5.3L285.917,261.256l-86.185,99.652L-38.111,108.479-52.184,97.454s-9.107,4.755-15.045,4.48-5.184.309-12.642-2.115S-109.2,76.127-109.2,76.127Z" transform="translate(3314 881)" fill="#e20000"/>
                <path id="Path_61" data-name="Path 61" d="M-101.578,192.084l71.4-196.568L-5.19-58.732,240.257,214.509,58.218,337.156l-17.4-15.9Z" transform="matrix(1, -0.017, 0.017, 1, 3107.399, 1190.565)" fill="#c50000"/>
                <path id="Path_60" data-name="Path 60" d="M-101.578,192.084l71.4-196.568L-5.19-58.732,240.257,214.509,58.218,337.156l-17.4-15.9Z" transform="matrix(1, -0.017, 0.017, 1, 3265.399, 1044.565)" fill="#e20000"/>
                <g id="layer1" transform="translate(2663.405 638.333)">
                  <path id="path28" d="M134.885,575.565c15.271-42.094,20.76-60.16,19.179-63.11-1.219-2.275-13.257-20.834-26.751-41.259S97.391,425.721,90.8,415.519,75,391.115,70.314,383.971c-8.468-12.917-8.494-13.042-4.789-23.511,46.24-130.885,54.338-150.582,68.312-166.155,15.74-17.541,52.121-33.737,75.673-33.691,13.049.029,47.655,11.128,131.178,42.077l27.223,10.091a118.9,118.9,0,0,1,16.763,7.167c3.113,2.694-10.692,24.967-23.193,37.4-19.991,19.876-51.92,31.445-79.04,28.61-7.7-.8-27.123-6.071-43.16-11.7-33.308-11.7-30.236-12.855-39.635,14.953-5.941,17.58-6.035,18.679-1.916,22.51,2.395,2.213,37.422,23.751,77.855,47.866,60.261,35.94,75.788,46.333,86.135,57.655,15.127,16.552,23.926,33.093,30.023,56.434,5.783,22.146,5.716,37.489-.271,60.541a164.4,164.4,0,0,0-4.289,18.844,37.626,37.626,0,0,0,16.332,5.987c7.862,0,15.544-27.479,15.566-55.706q.055-49.891-31.584-93.042c-13.24-18.037-25.279-26.735-93.5-67.569-33.375-19.974-63.259-38.466-66.405-41.089-5.608-4.674-5.618-4.773-.541-4.852,2.85-.048,11.758,2.352,19.8,5.326,11.933,4.413,20.072,5.426,44.317,5.508,27.254.1,31.023-.479,45.787-6.873A208.553,208.553,0,0,0,369.277,282c14.409-10.441,18.049-11.914,32.247-13.054a82.556,82.556,0,0,0,26.287-6.53l10.283-5.247,7.9,13.81c15.067,26.342,33.9,39.6,60.05,42.283,9.837,1.011,17.33-.206,32.309-5.237,10.726-3.6,19.661-6.226,19.852-5.845C572,330.2,585.012,343.961,604.7,351.324c11.406,3.959,20.769,6.828,32.838,7.146,0,0,7.146-.32,11.648-.692a71.505,71.505,0,0,0,9.781-1.707c.24.848-74.037,205.107-91.749,252.47-22.441,23.071-59.442,17.146-71.477,50.852-3.185,9.464-53.881,128.819-54.918,127.787a455.063,455.063,0,0,1-99.23-1.87,427.911,427.911,0,0,1-104.5-26.256c-38.84-13.889-99.306-47.37-139.193-84.938.515,0,19.074-49.207,36.994-98.552Zm472.324-247.1c-8.511-3.214-15.855-13.2-20.793-22.75-10.264-19.833-8.633-28.159,21.054-107.578,3.056-8.176,6.111-14.282,9.181-20.784,6.863-18.964,29.438-9.392,29.259-9.392,23.119,7.225,27.091,9.21,49.793,17.311.053.388,24.074,5.8,16.076,27.539,0,0-6.334,15.472-11.693,30.533s-11.341,31.835-13.291,37.281-4.761,25.216-33.641,44.853c-13.619,9.392-38.823,5.666-45.943,2.977Zm-115.72-43.857c-13.724-6.226-25.03-20.633-28.55-36.359l-2.874-12.864,26.864-73.9c16.686-45.9,28.959-76.008,32.4-79.466,4.071-4.109,8.413-5.568,16.523-5.568,13,0,51.424,13.157,62.742,21.483,14.548,10.692,13.889,15.9-10.465,83.2C559.252,260.9,555.761,268.965,546.8,276.59a52.662,52.662,0,0,1-55.318,8.02Zm-87.682-42.082a153.206,153.206,0,0,1,7-19.416l7-17.2-7.618-3.041c-4.191-1.676-18.755-6.928-32.367-11.679s-26.059-9.957-27.659-11.571c-2.232-2.251,3.69-21.054,25.461-80.834,15.623-42.9,30.691-80.369,33.526-83.4,8.621-9.169,16.763-9.287,42.078-.608C485.289,26.462,492.655,30.72,497.1,41.331c4.119,9.818,3.283,13.147-17.46,69.77-3.242,8.848-13.389,36.689-22.549,61.872s-18.257,48.313-20.216,51.4c-7.515,11.856-33.081,25.882-33.081,18.15ZM276.35,154.551c-35.873-12.433-44.69-16.385-45.274-20.29-.635-4.239,15.53-53.163,31.543-95.451C268.584,23.052,279.509,12.1,289.26,12.1c9.016,0,61.245,19.428,67.239,25.013,7.141,6.653,8.86,19.289,4.356,32.192-2.079,5.97-8.961,25.334-15.29,43.028s-13.159,36.838-15.173,42.54-4.976,11.435-6.578,12.742c-1.956,1.595-17.556-2.7-47.461-13.066Z" transform="translate(-63.171 -8.387)" fill="#fff"/>
                </g>
              </g>
            </g>
            <g id="Japan_Flat-05" transform="matrix(0.921, 0.391, -0.391, 0.921, 224.663, 0)">
              <path id="Path_35" data-name="Path 35" d="M281.027,47.866h227.16C525.224,47.866,558.485,0,538.2,0H6.355C-13.928,0,19.336,47.866,36.371,47.866H281.027Z" transform="translate(138.508 253.427)" fill="#fff"/>
              <rect id="Rectangle_3" data-name="Rectangle 3" width="37.678" height="91.582" transform="translate(391.949 172.846)" fill="#fff"/>
              <path id="Path_37" data-name="Path 37" d="M549.743,0V22.2s2.185,22.335-23.56,22.335H23.611C-2.136,44.54.046,22.2.046,22.2V0Z" transform="translate(135.889 142.043)" fill="#fff"/>
              <path id="Path_39" data-name="Path 39" d="M410.386,104.76c294.644,0,411.191-56.309,411.191-56.309S817.646,37.977,800.621,0C708.952,57.618,410.386,66.787,410.386,66.787h.8S112.619,57.62,20.952,0C3.929,37.975,0,48.449,0,48.449s116.545,56.309,411.189,56.309h-.8Z" fill="#fff"/>
            </g>
          </g>
        </g>
      </g>
    </g>
  </g>
</svg>
