<svg id="shnd-logo" xmlns="http://www.w3.org/2000/svg" width="1250.333" height="1250.333" viewBox="0 0 1250.333 1250.333">
  <path id="Path_1" data-name="Path 1" d="M189.5,0C294.158,0,379,84.842,379,189.5S294.158,379,189.5,379,0,294.158,0,189.5,84.842,0,189.5,0Z" fill="#fc0"/>
  <path id="Path_3" data-name="Path 3" d="M-.219.25S61.625,75.5,61.375,75.75,53.75,89.193,53.75,89.25s-16.063,26.183-33,40.875S-17,163.5-55.375,173.25s-53,7.5-53.25,7.5S-.219.25-.219.25Z" transform="translate(298 198)" fill="#ebbd03"/>
  <path id="Path_2" data-name="Path 2" d="M45.508-3.076s58.649,84.84,58.8,84.982c0,.471-2.62,16.336-3.925,20.421-3.021,11.981-3.261,11.122-4.635,15.86-3.77,10.454-7.449,18.469-7.449,18.469L25.687,58.6a14.281,14.281,0,0,1-8.318,1.853c-4.608-.49-6.325.189-12.157-3.726s-7.55-7.447-7.55-7.447Z" transform="translate(273 133)" fill="#ebbd03"/>
  <g id="layer1" transform="translate(49 53)">
    <path id="path28" d="M93.118,245.233c6.377-17.578,8.669-25.122,8.009-26.354-.509-.95-5.536-8.7-11.171-17.229s-12.5-18.99-15.246-23.25-6.6-10.191-8.556-13.174c-3.536-5.394-3.547-5.446-2-9.818C83.463,100.752,86.845,92.527,92.68,86.024c6.573-7.325,21.765-14.088,31.6-14.069,5.449.012,19.9,4.647,54.778,17.571l11.368,4.214a49.652,49.652,0,0,1,7,2.993c1.3,1.125-4.465,10.426-9.685,15.618-8.348,8.3-21.681,13.131-33.006,11.947-3.216-.336-11.326-2.535-18.023-4.887-13.909-4.884-12.626-5.368-16.551,6.244-2.481,7.341-2.52,7.8-.8,9.4,1,.924,15.627,9.918,32.511,19.988,25.164,15.008,31.648,19.348,35.969,24.076,6.317,6.912,9.991,13.819,12.537,23.566,2.415,9.248,2.387,15.655-.113,25.281a68.658,68.658,0,0,0-1.791,7.869,15.712,15.712,0,0,0,6.82,2.5c3.283,0,6.491-11.475,6.5-23.262q.023-20.834-13.189-38.853c-5.529-7.532-10.556-11.164-39.046-28.216-13.937-8.341-26.416-16.063-27.73-17.158-2.342-1.952-2.346-1.993-.226-2.026,1.19-.02,4.91.982,8.268,2.224,4.983,1.843,8.382,2.266,18.506,2.3,11.381.041,12.955-.2,19.12-2.87a87.085,87.085,0,0,0,13.5-7.83c6.017-4.36,7.537-4.975,13.466-5.451a34.474,34.474,0,0,0,10.977-2.727l4.294-2.191,3.3,5.767c6.292,11,14.158,16.535,25.076,17.657,4.108.422,7.237-.086,13.492-2.187,4.479-1.505,8.21-2.6,8.29-2.441,5.76,11.7,11.193,17.447,19.415,20.522a49.041,49.041,0,0,0,14.792,2.695c.055.006,7.893-.656,7.869-.713.1.354-30.917,85.65-38.313,105.428-9.371,9.634-24.822,7.16-29.848,21.235-1.33,3.952-22.5,53.793-22.933,53.362a190.028,190.028,0,0,1-41.437-.781A178.689,178.689,0,0,1,135.8,321.855c-16.219-5.8-41.469-19.781-58.125-35.469.215,0,7.965-20.548,15.448-41.154ZM290.354,142.047c-3.554-1.342-6.621-5.514-8.683-9.5-4.286-8.282-3.605-11.759,8.792-44.923,1.276-3.414,2.552-5.964,3.834-8.679,2.866-7.919,12.293-3.922,12.218-3.922,9.654,3.017,11.313,3.846,20.793,7.229.022.162,10.053,2.424,6.713,11.5,0,0-2.645,6.461-4.883,12.75s-4.736,13.294-5.55,15.568S321.6,132.6,309.54,140.8c-5.687,3.922-16.212,2.366-19.185,1.243Zm-48.323-18.314c-5.731-2.6-10.452-8.616-11.922-15.183l-1.2-5.372,11.218-30.859c6.968-19.169,12.093-31.74,13.528-33.184,1.7-1.716,3.513-2.325,6.9-2.325,5.427,0,21.474,5.494,26.2,8.971,6.075,4.465,5.8,6.641-4.37,34.743-12.057,33.309-13.515,36.677-17.257,39.861a21.991,21.991,0,0,1-23.1,3.349ZM205.416,106.16a63.978,63.978,0,0,1,2.923-8.108l2.923-7.182-3.181-1.27c-1.75-.7-7.832-2.893-13.516-4.877s-10.882-4.158-11.55-4.832c-.932-.94,1.541-8.792,10.632-33.755,6.524-17.913,12.816-33.561,14-34.826,3.6-3.829,7-3.878,17.571-.254,14.224,4.879,17.3,6.657,19.158,11.088,1.72,4.1,1.371,5.49-7.291,29.135-1.354,3.695-5.591,15.321-9.416,25.837s-7.624,20.175-8.442,21.465c-3.138,4.951-13.814,10.808-13.814,7.579ZM152.192,69.423c-14.98-5.192-18.662-6.842-18.906-8.473-.265-1.77,6.485-22.2,13.172-39.859,2.491-6.58,7.053-11.153,11.125-11.153,3.765,0,25.575,8.113,28.078,10.445,2.982,2.778,3.7,8.055,1.819,13.443-.868,2.493-3.742,10.579-6.385,17.968s-5.495,15.383-6.336,17.764-2.078,4.775-2.747,5.321c-.817.666-7.331-1.127-19.819-5.456Z" transform="translate(-63.171 -8.386)" fill="#333"/>
  </g>
</svg>
