<svg xmlns="http://www.w3.org/2000/svg" width="1286.868" height="1286.868" viewBox="0 0 1286.868 1286.868">
  <path id="Path_1" data-name="Path 1" d="M643.434,0c355.359,0,643.434,288.075,643.434,643.434s-288.075,643.434-643.434,643.434S0,998.793,0,643.434,288.075,0,643.434,0Z" fill="#fc0"/>
  <path id="Path_3" data-name="Path 3" d="M259.461.25S469.448,255.756,468.6,256.605s-25.89,45.645-25.89,45.838-54.541,88.9-112.049,138.788S202.482,554.554,72.183,587.659s-179.958,25.466-180.806,25.466S259.461.25,259.461.25Z" transform="translate(751.634 672.894)" fill="#ebbd03"/>
  <path id="Path_2" data-name="Path 2" d="M160.12-3.076S359.258,284.992,359.771,285.475c0,1.6-8.9,55.468-13.327,69.338-10.258,40.681-11.073,37.764-15.738,53.852-12.8,35.5-25.293,62.71-25.293,62.71L92.819,206.341a48.49,48.49,0,0,1-28.243,6.292c-15.646-1.664-21.476.642-41.278-12.651S-2.338,174.7-2.338,174.7Z" transform="translate(921.35 444.224)" fill="#ebbd03"/>
  <g id="layer1" transform="translate(166.376 179.961)">
    <path id="path28" d="M164.853,812.581c21.653-59.685,29.435-85.3,27.194-89.483-1.728-3.226-18.8-29.54-37.931-58.5s-42.426-64.479-51.767-78.944-22.41-34.6-29.051-44.731c-12.006-18.315-12.044-18.492-6.791-33.336C132.071,322.006,143.554,294.079,163.366,272c22.318-24.871,73.9-47.835,107.3-47.77,18.5.041,67.569,15.779,185.995,59.661l38.6,14.308a168.574,168.574,0,0,1,23.768,10.163c4.414,3.82-15.161,35.4-32.885,53.03-28.345,28.182-73.617,44.585-112.07,40.565-10.92-1.141-38.457-8.607-61.2-16.593-47.227-16.583-42.871-18.227-56.2,21.2-8.424,24.926-8.556,26.484-2.716,31.917,3.4,3.138,53.06,33.676,110.389,67.868,85.443,50.959,107.458,65.695,122.13,81.749,21.449,23.469,33.924,46.921,42.569,80.017,8.2,31.4,8.1,53.156-.384,85.84a233.076,233.076,0,0,0-6.081,26.719,53.35,53.35,0,0,0,23.157,8.489c11.147,0,22.04-38.963,22.07-78.985q.078-70.74-44.782-131.923c-18.773-25.574-35.842-37.907-132.578-95.806-47.322-28.321-89.694-54.541-94.155-58.259-7.952-6.628-7.966-6.767-.767-6.879,4.041-.068,16.672,3.334,28.073,7.551,16.919,6.258,28.461,7.694,62.836,7.81,38.643.139,43.988-.679,64.921-9.745a295.684,295.684,0,0,0,45.838-26.586c20.43-14.8,25.592-16.892,45.723-18.508a117.054,117.054,0,0,0,37.272-9.259l14.58-7.439,11.2,19.581c21.364,37.35,48.072,56.143,85.144,59.953,13.948,1.433,24.573-.292,45.811-7.426,15.208-5.11,27.876-8.828,28.148-8.288,19.558,39.727,38,59.24,65.922,69.681a166.512,166.512,0,0,0,50.225,9.151c.187.02,26.8-2.227,26.719-2.421.339,1.2-104.977,290.819-130.089,357.974-31.819,32.712-84.281,24.311-101.347,72.1-4.516,13.419-76.4,182.65-77.868,181.187a645.233,645.233,0,0,1-140.7-2.652,606.734,606.734,0,0,1-148.167-37.227c-55.071-19.694-140.805-67.165-197.359-120.432.73,0,27.045-69.769,52.453-139.736Zm669.7-350.361c-12.067-4.557-22.481-18.722-29.483-32.257-14.553-28.121-12.241-39.927,29.853-152.533,4.332-11.592,8.665-20.25,13.018-29.469,9.731-26.888,41.74-13.317,41.485-13.317,32.78,10.244,38.413,13.059,70.6,24.546.075.55,34.135,8.231,22.794,39.047,0,0-8.981,21.938-16.58,43.292s-16.08,45.139-18.844,52.86-6.75,35.754-47.7,63.6c-19.31,13.317-55.047,8.034-65.141,4.221ZM670.477,400.036c-19.459-8.828-35.489-29.255-40.48-51.553l-4.074-18.24,38.09-104.78c23.659-65.087,41.061-107.771,45.933-112.674,5.773-5.827,11.928-7.894,23.429-7.894,18.427,0,72.913,18.654,88.96,30.46,20.627,15.161,19.694,22.549-14.838,117.967-40.939,113.1-45.889,124.534-58.595,135.345a74.669,74.669,0,0,1-78.435,11.371ZM546.153,340.369a217.216,217.216,0,0,1,9.925-27.53L566,288.452l-10.8-4.312c-5.942-2.377-26.593-9.823-45.893-16.559s-36.949-14.118-39.217-16.407c-3.165-3.192,5.232-29.853,36.1-114.613,22.152-60.822,43.516-113.954,47.536-118.249,12.224-13,23.768-13.167,59.661-.862,48.3,16.566,58.741,22.6,65.05,37.649,5.84,13.921,4.655,18.641-24.756,98.926-4.6,12.546-18.984,52.021-31.972,87.728s-25.887,68.5-28.664,72.883c-10.655,16.811-46.9,36.7-46.9,25.734ZM365.435,215.631C314.572,198,302.069,192.4,301.241,186.861c-.9-6.01,22.019-75.379,44.725-135.339,8.458-22.342,23.948-37.869,37.774-37.869,12.784,0,86.838,27.547,95.337,35.465,10.125,9.433,12.563,27.35,6.176,45.645-2.947,8.465-12.706,35.92-21.68,61.009S444.916,208,442.06,216.089,435,232.3,432.733,234.156c-2.774,2.261-24.892-3.827-67.294-18.525Z" transform="translate(-63.171 -8.387)" fill="#333"/>
  </g>
</svg>
