<svg xmlns="http://www.w3.org/2000/svg" width="1250.33" height="1250.33" viewBox="0 0 1250.33 1250.33">
  <g id="Grupo_3" data-name="Grupo 3" transform="translate(1067 2523)">
    <g id="shnd-logo-2" transform="translate(-1067 -2523)">
      <path id="Path_1" data-name="Path 1" d="M625.165,0C970.434,0,1250.33,279.9,1250.33,625.165s-279.9,625.165-625.165,625.165S0,970.434,0,625.165,279.9,0,625.165,0Z" fill="#fc0"/>
      <path id="Path_3" data-name="Path 3" d="M245.615.25S447.7,246.145,446.886,246.962,421.97,290.89,421.97,291.076s-52.489,85.558-107.834,133.568S190.78,533.7,65.381,565.564s-173.189,24.508-174.006,24.508S245.615.25,245.615.25Z" transform="translate(739.315 659.442)" fill="#ebbd03"/>
      <path id="Path_2" data-name="Path 2" d="M154.009-3.076S345.657,274.156,346.15,274.62c0,1.539-8.561,53.381-12.826,66.73-9.872,39.15-10.656,36.343-15.146,51.826-12.319,34.161-24.341,60.351-24.341,60.351L89.24,198.463a46.666,46.666,0,0,1-27.181,6.055c-15.058-1.6-20.668.618-39.726-12.175S-2.338,168.008-2.338,168.008Z" transform="translate(898.651 434.074)" fill="#ebbd03"/>
      <g id="layer1" transform="translate(160.119 173.192)">
        <path id="path28" d="M161.028,790.954c20.838-58.08,28.328-83.006,26.171-87.077-1.663-3.139-18.09-28.746-36.5-56.927s-40.83-62.745-49.82-76.821S79.31,536.457,72.918,526.6c-11.555-17.822-11.591-17.994-6.535-32.44,63.1-180.59,74.148-207.766,93.215-229.253,21.479-24.2,71.122-46.548,103.26-46.486,17.806.04,65.027,15.354,179,58.057L479,290.4a161.293,161.293,0,0,1,22.874,9.889c4.248,3.717-14.59,34.449-31.648,51.6-27.279,27.424-70.847,43.386-107.854,39.474-10.509-1.11-37.01-8.376-58.894-16.147-45.451-16.137-41.258-17.736-54.084,20.631-8.107,24.255-8.235,25.772-2.614,31.059,3.268,3.053,51.064,32.77,106.236,66.043,82.229,49.588,103.417,63.928,117.536,79.55,20.642,22.838,32.648,45.66,40.967,77.865,7.891,30.556,7.8,51.726-.369,83.531a229.006,229.006,0,0,0-5.852,26,50.991,50.991,0,0,0,22.286,8.26c10.728,0,21.211-37.915,21.24-76.86q.075-68.838-43.1-128.375C487.662,538.04,471.235,526.04,378.138,469.7c-45.542-27.56-86.32-53.074-90.614-56.692-7.653-6.45-7.666-6.585-.738-6.694,3.889-.066,16.044,3.245,27.017,7.348,16.283,6.089,27.39,7.487,60.472,7.6,37.19.135,42.333-.661,62.479-9.483a283.82,283.82,0,0,0,44.114-25.871c19.662-14.406,24.629-16.438,44-18.011a111.643,111.643,0,0,0,35.87-9.01l14.032-7.239L585.556,370.7c20.56,36.345,46.264,54.634,81.941,58.341,13.424,1.394,23.648-.284,44.088-7.226,14.636-4.973,26.828-8.591,27.089-8.065,18.822,38.658,36.575,57.647,63.443,67.807a158.675,158.675,0,0,0,48.336,8.9c.18.02,25.792-2.167,25.714-2.356.327,1.17-101.028,283-125.2,348.346-30.622,31.832-81.111,23.657-97.535,70.163-4.346,13.058-73.523,177.738-74.938,176.314a614.153,614.153,0,0,1-135.4-2.581A578.667,578.667,0,0,1,300.5,1044.122c-53-19.164-135.509-65.359-189.936-117.194.7,0,26.027-67.893,50.48-135.978Zm644.51-340.938c-11.613-4.434-21.636-18.219-28.374-31.389-14.005-27.365-11.78-38.853,28.73-148.431,4.17-11.28,8.339-19.706,12.528-28.676,9.365-26.165,40.17-12.959,39.925-12.959,31.546,9.968,36.968,12.708,67.945,23.885.072.535,32.85,8.009,21.936,38,0,0-8.643,21.348-15.956,42.127S916.8,376.5,914.137,384.009s-6.5,34.792-45.9,61.886c-18.583,12.959-52.976,7.818-62.691,4.107ZM647.633,389.5c-18.727-8.591-34.154-28.468-38.958-50.166l-3.921-17.75,36.657-101.962c22.769-63.337,39.516-104.873,44.206-109.644,5.555-5.67,11.479-7.682,22.547-7.682,17.734,0,70.171,18.153,85.614,29.641,19.851,14.753,18.953,21.943-14.28,114.795-39.4,110.057-44.163,121.185-56.391,131.705a71.234,71.234,0,0,1-75.484,11.065ZM527.986,331.44a212.931,212.931,0,0,1,9.552-26.79l9.552-23.73-10.395-4.2c-5.718-2.313-25.593-9.559-44.166-16.114s-35.559-13.738-37.742-15.965c-3.046-3.106,5.036-29.05,34.742-111.53,21.319-59.187,41.879-110.889,45.748-115.069,11.764-12.651,22.874-12.813,57.417-.839,46.48,16.121,56.531,22,62.6,36.636,5.62,13.547,4.48,18.14-23.825,96.265-4.424,12.209-18.27,50.622-30.769,85.368s-24.913,66.66-27.586,70.923c-10.254,16.359-45.14,35.711-45.14,25.042ZM354.065,210.057c-48.95-17.155-60.982-22.607-61.779-28-.866-5.848,21.191-73.351,43.042-131.7,8.14-21.741,23.047-36.851,36.353-36.851,12.3,0,83.572,26.806,91.751,34.511,9.744,9.179,12.091,26.615,5.944,44.417-2.836,8.237-12.228,34.954-20.864,59.368s-17.956,50.827-20.7,58.694-6.79,15.777-8.976,17.581c-2.67,2.2-23.956-3.724-64.763-18.027Z" transform="translate(-63.171 -8.387)" fill="#333"/>
      </g>
    </g>
  </g>
</svg>
