<svg xmlns="http://www.w3.org/2000/svg" width="1287.462" height="1287.462" viewBox="0 0 1287.462 1287.462">
  <g id="Grupo_3" data-name="Grupo 3" transform="translate(1067 2523)">
    <g id="shnd-logo-2" transform="translate(-1067 -2523)">
      <path id="Path_1" data-name="Path 1" d="M643.731,0c355.523,0,643.731,288.208,643.731,643.731s-288.208,643.731-643.731,643.731S0,999.254,0,643.731,288.208,0,643.731,0Z" fill="#fc0"/>
      <path id="Path_3" data-name="Path 3" d="M245.615.25S447.7,246.145,446.886,246.962,421.97,290.89,421.97,291.076s-52.489,85.558-107.834,133.568S190.78,533.7,65.381,565.564s-173.189,24.508-174.006,24.508S245.615.25,245.615.25Z" transform="translate(776.447 696.573)" fill="#ebbd03"/>
      <path id="Path_2" data-name="Path 2" d="M154.009-3.076S345.657,274.156,346.15,274.62c0,1.539-8.561,53.381-12.826,66.73-9.872,39.15-10.656,36.343-15.146,51.826-12.319,34.161-24.341,60.351-24.341,60.351L89.24,198.463a46.666,46.666,0,0,1-27.181,6.055c-15.058-1.6-20.668.618-39.726-12.175S-2.338,168.008-2.338,168.008Z" transform="translate(935.783 454.237)" fill="#ebbd03"/>
      <g id="layer1" transform="translate(160.119 173.192)">
        <path id="path28" d="M161.028,817.931c20.838-60.082,28.328-85.867,26.171-90.078-1.663-3.247-18.09-29.737-36.5-58.889s-40.83-64.908-49.82-79.469S79.31,554.662,72.918,544.466c-11.555-18.437-11.591-18.615-6.535-33.558,63.1-186.815,74.148-214.929,93.215-237.156,21.479-25.037,71.122-48.153,103.26-48.088,17.806.041,65.027,15.884,179,60.058L479,300.125a158.517,158.517,0,0,1,22.874,10.23c4.248,3.845-14.59,35.636-31.648,53.383-27.279,28.37-70.847,44.882-107.854,40.835-10.509-1.148-37.01-8.665-58.894-16.7-45.451-16.694-41.258-18.348-54.084,21.342-8.107,25.092-8.235,26.661-2.614,32.129,3.268,3.158,51.064,33.9,106.236,68.319,82.229,51.3,103.417,66.132,117.536,82.292C491.2,615.578,503.2,639.186,511.523,672.5c7.891,31.61,7.8,53.509-.369,86.411a243.894,243.894,0,0,0-5.852,26.9,49.955,49.955,0,0,0,22.286,8.545c10.728,0,21.211-39.222,21.24-79.51q.075-71.211-43.1-132.8C487.662,556.3,471.235,543.885,378.138,485.6c-45.542-28.51-86.32-54.9-90.614-58.646-7.653-6.672-7.666-6.812-.738-6.925,3.889-.068,16.044,3.357,27.017,7.6,16.283,6.3,27.39,7.745,60.472,7.861,37.19.14,42.333-.684,62.479-9.81a281.8,281.8,0,0,0,44.114-26.763c19.662-14.9,24.629-17,44-18.632a108.643,108.643,0,0,0,35.87-9.321l14.032-7.489,10.784,19.712c20.56,37.6,46.264,56.517,81.941,60.352,13.424,1.442,23.648-.294,44.088-7.475,14.636-5.144,26.828-8.887,27.089-8.343,18.822,39.991,36.575,59.634,63.443,70.145a153.978,153.978,0,0,0,48.336,9.212c.18.021,25.792-2.242,25.714-2.437.327,1.21-101.028,292.754-125.2,360.355-30.622,32.929-81.111,24.473-97.535,72.582-4.346,13.508-73.523,183.865-74.938,182.392a593.838,593.838,0,0,1-135.4-2.67A563.1,563.1,0,0,1,300.5,1079.827c-53-19.825-135.509-67.612-189.936-121.234.7,0,26.027-70.233,50.48-140.665ZM805.538,465.24c-11.613-4.587-21.636-18.847-28.374-32.471-14.005-28.308-11.78-40.193,28.73-153.548,4.17-11.669,8.339-20.385,12.528-29.665,9.365-27.067,40.17-13.405,39.925-13.405,31.546,10.312,36.968,13.146,67.945,24.709.072.554,32.85,8.285,21.936,39.307,0,0-8.643,22.084-15.956,43.58s-15.476,45.439-18.136,53.212-6.5,35.992-45.9,64.02c-18.583,13.405-52.976,8.087-62.691,4.249Zm-157.906-62.6c-18.727-8.887-34.154-29.45-38.958-51.9l-3.921-18.362,36.657-105.477c22.769-65.52,39.516-108.488,44.206-113.424,5.555-5.865,11.479-7.947,22.547-7.947,17.734,0,70.171,18.779,85.614,30.663,19.851,15.261,18.953,22.7-14.28,118.752C740.1,368.8,735.335,380.316,723.107,391.2a69.371,69.371,0,0,1-75.484,11.447ZM527.986,342.577a225.33,225.33,0,0,1,9.552-27.713l9.552-24.548-10.395-4.341c-5.718-2.393-25.593-9.888-44.166-16.67s-35.559-14.212-37.742-16.516c-3.046-3.213,5.036-30.051,34.742-115.375C510.847,76.187,531.407,22.7,535.276,18.378,547.04,5.29,558.15,5.123,592.693,17.51c46.48,16.677,56.531,22.754,62.6,37.9,5.62,14.014,4.48,18.765-23.825,99.584-4.424,12.63-18.27,52.367-30.769,88.311s-24.913,68.959-27.586,73.368c-10.254,16.923-45.14,36.942-45.14,25.905ZM354.065,217.009c-48.95-17.746-60.982-23.386-61.779-28.961-.866-6.05,21.191-75.88,43.042-136.239,8.14-22.491,23.047-38.121,36.353-38.121,12.3,0,83.572,27.73,91.751,35.7,9.744,9.5,12.091,27.532,5.944,45.948-2.836,8.521-12.228,36.159-20.864,61.415s-17.956,52.579-20.7,60.718-6.79,16.321-8.976,18.187c-2.67,2.276-23.956-3.852-64.763-18.649Z" transform="translate(-63.171 -8.387)" fill="#333"/>
      </g>
    </g>
  </g>
</svg>
