<svg id="Component_2_1" data-name="Component 2 – 1" xmlns="http://www.w3.org/2000/svg" xmlns:xlink="http://www.w3.org/1999/xlink" width="1250.333" height="1250.333" viewBox="0 0 1250.333 1250.333">
  <defs>
    <clipPath id="clip-path">
      <path id="Path_1" data-name="Path 1" d="M625.167,0c345.27,0,625.167,279.9,625.167,625.167s-279.9,625.167-625.167,625.167S0,970.437,0,625.167,279.9,0,625.167,0Z" transform="translate(2256 200)" fill="#fc0"/>
    </clipPath>
  </defs>
  <g id="Mask_Group_10" data-name="Mask Group 10" transform="translate(-2256 -200)" clip-path="url(#clip-path)">
    <path id="Path_1-2" data-name="Path 1" d="M625.167,0C872.38,0,1086.079,143.491,1187.4,351.475a622.948,622.948,0,0,1,62.936,273.691c0,345.27-279.9,625.167-625.167,625.167S0,970.437,0,625.167,279.9,0,625.167,0Z" transform="translate(2256 200)"/>
  </g>
  <g id="g4637" transform="translate(211.034 739.56)">
    <g id="Group_16" data-name="Group 16" transform="translate(0 83.548)">
      <g id="text4585" transform="translate(102.966 -85.705)">
        <path id="path9807" d="M27.38,44.76V-.564h84.983a5.381,5.381,0,0,0,3.966-1.586,5.563,5.563,0,0,0,1.7-4.079,5.2,5.2,0,0,0-1.7-3.966,5.2,5.2,0,0,0-3.966-1.7H78.37A49.114,49.114,0,0,1,42.337-26.853,49.114,49.114,0,0,1,27.38-62.886,49.114,49.114,0,0,1,42.337-98.918,49.114,49.114,0,0,1,78.37-113.876h84.983v45.324H78.37a5.563,5.563,0,0,0-4.079,1.7A5.381,5.381,0,0,0,72.7-62.886a5.768,5.768,0,0,0,1.586,4.079A5.768,5.768,0,0,0,78.37-57.22h33.993A49.114,49.114,0,0,1,148.4-42.263,49.114,49.114,0,0,1,163.353-6.23,49.114,49.114,0,0,1,148.4,29.8,49.114,49.114,0,0,1,112.363,44.76Z" transform="translate(-27.38 145.047)" fill="#f2f2f2"/>
        <path id="path9809" d="M237.176-11.9V44.76H191.851V-113.875h45.324v56.656h56.655v-56.656h45.324V44.76H293.831V-11.9Z" transform="translate(-44.547 145.047)" fill="#f2f2f2"/>
        <path id="path9811" d="M414.3-40.221V41.023H368.974v-190.7L482.285-36.369v-81.244H527.61V73.09Z" transform="translate(-63.035 149.68)" fill="#f2f2f2"/>
        <path id="path9813" d="M626.736-113.875q32.86,0,56.089,23.229t23.229,56.089q0,32.86-23.229,56.089T626.736,44.76H558.749V-113.875Zm0,113.311a32.742,32.742,0,0,0,24.022-9.971,32.743,32.743,0,0,0,9.971-24.022,32.743,32.743,0,0,0-9.971-24.022,32.742,32.742,0,0,0-24.022-9.971H604.073V-.564Z" transform="translate(-82.843 145.047)" fill="#f2f2f2"/>
      </g>
      <path id="path4" d="M806.512-69.883l170.672.191L1096.447,1.358l7.671,15.011-69.812,37.514h0ZM673.241,266.736l373.61-246.466L1466.206-191.56h0L1065.777,46.163Zm474.183-146.282,67.029-50.474h0L1452.3,208.853l-135.475.272Z" transform="translate(-655.275 -340.548)" fill="#fc0"/>
    </g>
  </g>
</svg>
