<svg xmlns="http://www.w3.org/2000/svg" xmlns:xlink="http://www.w3.org/1999/xlink" width="3272.216" height="848.218" viewBox="0 0 3272.216 848.218">
  <defs>
    <clipPath id="clip-path">
      <path id="Path_1" data-name="Path 1" d="M289.931,0C450.056,0,579.862,129.806,579.862,289.931S450.056,579.862,289.931,579.862,0,450.056,0,289.931,129.807,0,289.931,0Z" fill="#fc0"/>
    </clipPath>
    <clipPath id="clip-path-2">
      <rect id="Retângulo_8" data-name="Retângulo 8" width="452.263" height="272.934" transform="translate(0 0)" fill="#fff" stroke="#707070" stroke-width="1"/>
    </clipPath>
  </defs>
  <path id="Caminho_70" data-name="Caminho 70" d="M193.7,35.434q0,37.81-27.34,59.333T90.93,116.291q-48.087,0-78.723-14.93V57.539a213.969,213.969,0,0,0,41.2,14.349,174.7,174.7,0,0,0,40.622,5.235q27.534,0,40.622-10.471t13.088-28.115q0-15.9-12.022-26.952T86.083-14.592Q47.3-30.3,31.4-50.463T15.5-98.938q0-35.484,25.207-55.843t67.671-20.359q40.719,0,81.05,17.839l-14.736,37.81q-37.81-15.9-67.477-15.9-22.492,0-34.126,9.792T61.457-99.713q0,11.052,4.654,18.905T81.429-65.975q10.664,6.98,38.392,18.42,31.218,12.991,45.76,24.237t21.329,25.4Q193.7,16.238,193.7,35.434Zm128.966,76.978H276.321V-131.319H192.945v-39.749h213.1v39.749H322.663ZM471.989-39.217h32.187q32.381,0,46.924-12.022t14.542-35.677q0-24.044-15.706-34.514T502.625-131.9H471.989Zm0,38.392V112.413H425.647V-171.068h80.08q54.874,0,81.244,20.553t26.37,62.048q0,52.935-55.067,75.427l80.08,125.453H585.614L517.749-.825ZM907.317-29.716q0,69.222-34.611,107.614t-98.016,38.392q-64.181,0-98.6-38.1T641.674-30.1q0-70.192,34.611-107.808t98.792-37.616q63.211,0,97.725,38.2T907.317-29.716Zm-216.392,0q0,52.353,21.135,79.4t62.63,27.049q41.3,0,62.339-26.758t21.038-79.693q0-52.159-20.844-79.111t-62.145-26.952q-41.688,0-62.92,26.952T690.925-29.716Zm489.619,142.128h-56.812L984.318-113.48h-1.551l.969,12.6q2.715,36.065,2.715,65.926V112.413H944.375V-171.068h56.231L1139.631,53.661h1.163q-.388-4.46-1.551-32.478t-1.163-43.724V-171.068h42.464ZM1347.515-41.35h104.318V100.972a301.9,301.9,0,0,1-49.153,11.828,347.965,347.965,0,0,1-50.9,3.49q-64.375,0-99.276-38.1T1217.6-29.328q0-68.447,39.362-107.129t108.39-38.683a211.085,211.085,0,0,1,84.152,17.063l-16.288,38.586q-34.514-15.9-69.028-15.9-45.372,0-71.743,28.5t-26.37,77.948q0,51.965,23.753,79.014t68.349,27.049a224.637,224.637,0,0,0,48.087-5.623V-1.6h-58.751Zm219.13-149.69V206.066h-17.451V-191.04Zm134.628,155.7h61.078q42.27,0,60.69-13.67t18.421-44.306q0-29.085-16.481-42.755t-51.383-13.67h-72.324ZM1675.1,112.413V-173.2h99.664q46.73,0,70.192,20.166t23.462,60.109q0,41.3-26.273,61.369t-80.177,20.069h-60.691v123.9ZM1980.747,1.7h110.859L2036.072-145.18Zm-68.562,110.717L2020.575-173.2h31.412l108.39,285.614h-27.582l-32.3-87.836H1972.479l-32.917,87.836Zm375.727,0V-13.04L2187.085-173.2H2217.1l83.786,135.275L2384.9-173.2h30.015L2314.089-13.04V112.413Z" transform="translate(857.299 417.04)"/>
  <g id="Componente_8_1" data-name="Componente 8 – 1">
    <g id="Grupo_31" data-name="Grupo 31" transform="translate(-4563.038 410.189)">
      <g id="Grupo_28" data-name="Grupo 28" transform="translate(4563 -410.189)">
        <g id="shnd-logo-2" transform="matrix(0.883, -0.469, 0.469, 0.883, 83.479, 294.649)">
          <path id="Path_1-2" data-name="Path 1" d="M290.052,0C450.244,0,580.1,129.861,580.1,290.052S450.244,580.1,290.052,580.1,0,450.243,0,290.052,129.861,0,290.052,0Z" transform="translate(0 0)" fill="#fc0"/>
        </g>
        <g id="Grupo_26" data-name="Grupo 26" transform="matrix(0.883, -0.469, 0.469, 0.883, 39.577, 276.457)">
          <g id="Grupo_20" data-name="Grupo 20" transform="translate(0 0)">
            <g id="Grupo_19" data-name="Grupo 19" transform="translate(0 0)">
              <g id="Grupo_de_máscara_7" data-name="Grupo de máscara 7" clip-path="url(#clip-path)">
                <path id="Path_1-3" data-name="Path 1" d="M289.931,0C404.58,0,503.687,66.546,550.675,163a288.9,288.9,0,0,1,29.187,126.929c0,160.125-129.807,289.931-289.931,289.931S0,450.056,0,289.931,129.807,0,289.931,0Z" fill="#f60"/>
              </g>
            </g>
          </g>
        </g>
        <g id="Grupo_27" data-name="Grupo 27" transform="translate(0 431.446) rotate(-45)">
          <g id="shnd-logo-2-2" data-name="shnd-logo-2" transform="translate(0 8.748)">
            <path id="Path_1-4" data-name="Path 1" d="M290.052,0C450.243,0,580.1,129.861,580.1,290.052S450.243,580.1,290.052,580.1,0,450.243,0,290.052,129.861,0,290.052,0Z" transform="translate(0.054 0.607)" fill="#ffa200"/>
          </g>
        </g>
      </g>
    </g>
    <g id="Grupo_46" data-name="Grupo 46" transform="translate(4698.861 566.048)">
      <g id="Grupo_44" data-name="Grupo 44" transform="translate(-4519.861 -215.792) rotate(-45)">
        <rect id="Retângulo_20" data-name="Retângulo 20" width="16.227" height="100.451" rx="8.113" transform="translate(153.177 3.464)"/>
        <rect id="Retângulo_25" data-name="Retângulo 25" width="16.227" height="104.315" rx="8.113" transform="translate(104.459 83.238) rotate(90)"/>
        <rect id="Retângulo_26" data-name="Retângulo 26" width="16.396" height="89.49" rx="8.198" transform="translate(16.396 173.99) rotate(180)"/>
        <rect id="Retângulo_23" data-name="Retângulo 23" width="16.227" height="97.36" rx="8.113" transform="translate(153.912 158.814)"/>
        <rect id="Retângulo_24" data-name="Retângulo 24" width="16.227" height="169.994" rx="8.113" transform="translate(170.139 158.814) rotate(90)"/>
        <rect id="Retângulo_21" data-name="Retângulo 21" width="16.396" height="204.878" rx="8.198" transform="translate(309.655 119.617) rotate(51)"/>
        <rect id="Retângulo_22" data-name="Retângulo 22" width="16.396" height="204.878" rx="8.198" transform="matrix(-0.629, 0.777, -0.777, -0.629, 319.974, 128.934)"/>
      </g>
      <g id="Grupo_45" data-name="Grupo 45" transform="translate(-4008.399 -68.64) rotate(135)">
        <rect id="Retângulo_20-2" data-name="Retângulo 20" width="16.396" height="99.757" rx="8.198" transform="translate(153.543 4.617)"/>
        <rect id="Retângulo_25-2" data-name="Retângulo 25" width="16.396" height="104.048" rx="8.198" transform="translate(104.201 161.225) rotate(90)"/>
        <rect id="Retângulo_26-2" data-name="Retângulo 26" width="16.396" height="89.49" rx="8.198" transform="translate(16.473 177.545) rotate(180)"/>
        <rect id="Retângulo_23-2" data-name="Retângulo 23" width="16.396" height="96.692" rx="8.198" transform="translate(153.543 160.612)"/>
        <rect id="Retângulo_24-2" data-name="Retângulo 24" width="16.396" height="169.94" rx="8.198" transform="translate(169.94 87.978) rotate(90)"/>
        <rect id="Retângulo_21-2" data-name="Retângulo 21" width="16.396" height="204.878" rx="8.198" transform="translate(309.732 119.617) rotate(51)"/>
        <rect id="Retângulo_22-2" data-name="Retângulo 22" width="16.396" height="204.878" rx="8.198" transform="matrix(-0.629, 0.777, -0.777, -0.629, 320.051, 128.934)"/>
      </g>
    </g>
  </g>
</svg>
