<svg xmlns="http://www.w3.org/2000/svg" xmlns:xlink="http://www.w3.org/1999/xlink" width="3738" height="848.218" viewBox="0 0 3738 848.218">
  <defs>
    <clipPath id="clip-path">
      <path id="Path_1" data-name="Path 1" d="M289.931,0C450.056,0,579.862,129.806,579.862,289.931S450.056,579.862,289.931,579.862,0,450.056,0,289.931,129.807,0,289.931,0Z" fill="#fc0"/>
    </clipPath>
    <clipPath id="clip-path-2">
      <rect id="Retângulo_8" data-name="Retângulo 8" width="452.263" height="272.934" transform="translate(0 0)" fill="#fff" stroke="#707070" stroke-width="1"/>
    </clipPath>
  </defs>
  <rect id="Retângulo_27" data-name="Retângulo 27" width="3738" height="843" rx="421.5" transform="translate(0 3)"/>
  <g id="Grupo_34" data-name="Grupo 34" transform="translate(-6056 220.827)">
    <path id="Caminho_70" data-name="Caminho 70" d="M126.465-48.462q0,23.8-17.212,37.354T61.768,2.441q-30.273,0-49.561-9.4V-34.546a134.705,134.705,0,0,0,25.94,9.033,109.986,109.986,0,0,0,25.574,3.3q17.334,0,25.574-6.592t8.24-17.7a22.182,22.182,0,0,0-7.568-16.968Q82.4-70.435,58.716-79.956,34.3-89.844,24.292-102.539t-10.01-30.518q0-22.339,15.869-35.156t42.6-12.817q25.635,0,51.025,11.23L114.5-146q-23.8-10.01-42.48-10.01-14.16,0-21.484,6.165t-7.324,16.3a22.943,22.943,0,0,0,2.93,11.9q2.93,4.944,9.644,9.338t24.17,11.6q19.653,8.179,28.809,15.259a44.88,44.88,0,0,1,13.428,15.991Q126.465-60.547,126.465-48.462ZM207.656,0H178.481V-153.442h-52.49v-25.024H260.146v25.024h-52.49Zm94.009-95.459h20.264q20.386,0,29.541-7.568t9.155-22.461q0-15.137-9.888-21.729t-29.785-6.592H301.665Zm0,24.17V0H272.49V-178.467h50.415q34.546,0,51.147,12.939t16.6,39.063q0,33.325-34.668,47.485L406.4,0H373.2L330.474-71.289ZM575.728-89.478q0,43.579-21.79,67.749T492.231,2.441q-40.405,0-62.073-23.987T408.491-89.722q0-44.189,21.79-67.871t62.195-23.682q39.795,0,61.523,24.048T575.728-89.478Zm-136.23,0q0,32.959,13.306,49.988t39.429,17.029q26,0,39.246-16.846t13.245-50.171q0-32.837-13.123-49.8T492.476-156.25q-26.245,0-39.612,16.968T439.5-89.478ZM747.739,0H711.973L624.2-142.212h-.977l.61,7.935q1.709,22.705,1.709,41.5V0H599.058V-178.467h35.4L721.982-36.987h.732q-.244-2.808-.977-20.447t-.732-27.527v-93.506h26.733ZM852.856-96.8H918.53V-7.2A190.059,190.059,0,0,1,887.585.244a219.062,219.062,0,0,1-32.043,2.2q-40.527,0-62.5-23.987T771.069-89.233q0-43.091,24.78-67.444t68.237-24.353a132.89,132.89,0,0,1,52.979,10.742L906.812-146q-21.728-10.01-43.457-10.01-28.564,0-45.166,17.944t-16.6,49.072q0,32.715,14.954,49.744t43.03,17.029a141.422,141.422,0,0,0,30.273-3.54V-71.777H852.856ZM990.811-191.04v250H979.824v-250Zm84.756,98.022h38.452q26.611,0,38.208-8.606t11.6-27.893q0-18.311-10.376-26.917t-32.349-8.606h-45.532ZM1059.087,0V-179.81h62.744q29.419,0,44.189,12.7t14.771,37.842q0,26-16.541,38.635T1113.774-78h-38.208V0Zm192.424-69.7H1321.3l-34.962-92.466ZM1208.348,0l68.237-179.81h19.775L1364.6,0h-17.365L1326.9-55.3h-80.6L1225.583,0Zm236.541,0V-78.979l-63.477-100.83h18.9l52.748,85.163,52.893-85.163h18.9l-63.477,100.83V0Z" transform="translate(7411.299 297.2)" fill="#fff"/>
    <g id="Grupo_31" data-name="Grupo 31" transform="translate(4325.347 189.362)">
      <g id="Grupo_28" data-name="Grupo 28" transform="translate(4563 -410.189)">
        <g id="shnd-logo-2" transform="matrix(0.883, -0.469, 0.469, 0.883, 83.479, 294.649)">
          <path id="Path_1-2" data-name="Path 1" d="M290.052,0C450.244,0,580.1,129.861,580.1,290.052S450.244,580.1,290.052,580.1,0,450.243,0,290.052,129.861,0,290.052,0Z" transform="translate(0 0)" fill="#fc0"/>
        </g>
        <g id="Grupo_26" data-name="Grupo 26" transform="matrix(0.883, -0.469, 0.469, 0.883, 39.577, 276.457)">
          <g id="Grupo_20" data-name="Grupo 20" transform="translate(0 0)">
            <g id="Grupo_19" data-name="Grupo 19" transform="translate(0 0)">
              <g id="Grupo_de_máscara_7" data-name="Grupo de máscara 7" clip-path="url(#clip-path)">
                <path id="Path_1-3" data-name="Path 1" d="M289.931,0C404.58,0,503.687,66.546,550.675,163a288.9,288.9,0,0,1,29.187,126.929c0,160.125-129.807,289.931-289.931,289.931S0,450.056,0,289.931,129.807,0,289.931,0Z" fill="#f60"/>
              </g>
            </g>
          </g>
        </g>
        <g id="Grupo_27" data-name="Grupo 27" transform="translate(0 431.446) rotate(-45)">
          <g id="shnd-logo-2-2" data-name="shnd-logo-2" transform="translate(0 8.748)">
            <path id="Path_1-4" data-name="Path 1" d="M290.052,0C450.243,0,580.1,129.861,580.1,290.052S450.243,580.1,290.052,580.1,0,450.243,0,290.052,129.861,0,290.052,0Z" transform="translate(0.054 0.607)" fill="#ffa200"/>
          </g>
        </g>
      </g>
    </g>
    <path id="Caminho_69" data-name="Caminho 69" d="M42.936-67.271H51.8q12.429,0,18.6-4.911t6.171-14.3q0-9.474-5.171-13.993t-16.209-4.52H42.936Zm60.84-20.164q0,20.512-12.82,31.376T54.5-45.2H42.936V0H15.992V-127.068H56.581q23.119,0,35.157,9.952T103.775-87.436ZM185.963,0l-5.128-13.211h-.7q-6.692,8.431-13.776,11.69T147.894,1.738q-13.993,0-22.033-8t-8.04-22.771q0-15.471,10.821-22.815t32.636-8.126l16.861-.521v-4.259q0-14.775-15.123-14.775-11.646,0-27.378,7.04l-8.778-17.9a79,79,0,0,1,37.2-8.778q19.556,0,29.985,8.518t10.43,25.9V0ZM178.14-45.021l-10.256.348q-11.56.348-17.209,4.172t-5.649,11.646q0,11.212,12.863,11.212,9.213,0,14.732-5.3t5.519-14.08Zm38.3-52.148h29.029L263.8-42.5A75.854,75.854,0,0,1,267.02-25.64h.521A74.511,74.511,0,0,1,271.279-42.5L289.27-97.17h28.421l-41.11,109.6q-5.649,15.21-16.123,22.771a40.693,40.693,0,0,1-24.466,7.562,61.526,61.526,0,0,1-13.472-1.478V20.251a45.315,45.315,0,0,0,10.43,1.13,18.836,18.836,0,0,0,12.3-4.3q5.258-4.3,8.213-12.994L255.026-.7ZM454.862,0l-7.475-33.983L437.3-76.919H436.7L418.966,0H390.458L362.82-97.17h26.422l11.212,43.022q2.694,11.56,5.476,31.9h.521A178.6,178.6,0,0,1,409.492-43.2l1.391-7.388L422.877-97.17h29.2l11.386,46.586q.348,1.912,1.086,5.649t1.434,7.953q.7,4.215,1.26,8.257t.652,6.475h.521q.782-6.258,2.781-17.166t2.868-14.732L485.716-97.17H511.7L483.717,0Zm69.932-122.288q0-12.95,14.428-12.95t14.428,12.95q0,6.171-3.607,9.6t-10.821,3.433Q524.794-109.251,524.794-122.288ZM552.433,0H525.924V-97.17h26.509Zm67.325-19.382a57.464,57.464,0,0,0,16.688-3.042V-2.694q-9.908,4.433-24.336,4.433-15.905,0-23.163-8.04T581.689-30.42V-77.267H569V-88.479l14.6-8.865,7.648-20.512H608.2V-97.17h27.2v19.9H608.2V-30.42q0,5.649,3.172,8.344A12.517,12.517,0,0,0,619.758-19.382ZM744.359,0H717.85V-56.755q0-21.033-15.645-21.033-11.125,0-16.079,7.562t-4.954,24.51V0H654.664V-135.238h26.509v27.552q0,3.216-.608,15.123l-.608,7.822h1.391Q690.212-99,709.507-99q17.122,0,25.987,9.213t8.865,26.422Z" transform="translate(6367 268.198)" fill="#fff"/>
  </g>
  <line id="Linha_1" data-name="Linha 1" y2="491" transform="translate(1196.5 178.5)" fill="none" stroke="#fff" stroke-linecap="round" stroke-width="9"/>
  <g id="Grupo_46" data-name="Grupo 46" transform="translate(7512.861 566.047)">
    <g id="Grupo_44" data-name="Grupo 44" transform="translate(-4519.861 -215.792) rotate(-45)">
      <rect id="Retângulo_20" data-name="Retângulo 20" width="16.227" height="100.451" rx="8.113" transform="translate(153.177 3.464)"/>
      <rect id="Retângulo_25" data-name="Retângulo 25" width="16.227" height="104.315" rx="8.113" transform="translate(104.459 83.238) rotate(90)"/>
      <rect id="Retângulo_26" data-name="Retângulo 26" width="16.396" height="89.49" rx="8.198" transform="translate(16.396 173.99) rotate(180)"/>
      <rect id="Retângulo_23" data-name="Retângulo 23" width="16.227" height="97.36" rx="8.113" transform="translate(153.912 158.814)"/>
      <rect id="Retângulo_24" data-name="Retângulo 24" width="16.227" height="169.994" rx="8.113" transform="translate(170.139 158.814) rotate(90)"/>
      <rect id="Retângulo_21" data-name="Retângulo 21" width="16.396" height="204.878" rx="8.198" transform="translate(309.655 119.617) rotate(51)"/>
      <rect id="Retângulo_22" data-name="Retângulo 22" width="16.396" height="204.878" rx="8.198" transform="matrix(-0.629, 0.777, -0.777, -0.629, 319.974, 128.934)"/>
    </g>
    <g id="Grupo_45" data-name="Grupo 45" transform="translate(-4008.399 -68.64) rotate(135)">
      <rect id="Retângulo_20-2" data-name="Retângulo 20" width="16.396" height="99.757" rx="8.198" transform="translate(153.543 4.617)"/>
      <rect id="Retângulo_25-2" data-name="Retângulo 25" width="16.396" height="104.048" rx="8.198" transform="translate(104.201 161.225) rotate(90)"/>
      <rect id="Retângulo_26-2" data-name="Retângulo 26" width="16.396" height="89.49" rx="8.198" transform="translate(16.473 177.545) rotate(180)"/>
      <rect id="Retângulo_23-2" data-name="Retângulo 23" width="16.396" height="96.692" rx="8.198" transform="translate(153.543 160.612)"/>
      <rect id="Retângulo_24-2" data-name="Retângulo 24" width="16.396" height="169.94" rx="8.198" transform="translate(169.94 87.978) rotate(90)"/>
      <rect id="Retângulo_21-2" data-name="Retângulo 21" width="16.396" height="204.878" rx="8.198" transform="translate(309.732 119.617) rotate(51)"/>
      <rect id="Retângulo_22-2" data-name="Retângulo 22" width="16.396" height="204.878" rx="8.198" transform="matrix(-0.629, 0.777, -0.777, -0.629, 320.051, 128.934)"/>
    </g>
  </g>
</svg>
