<svg xmlns="http://www.w3.org/2000/svg" xmlns:xlink="http://www.w3.org/1999/xlink" width="1286.868" height="1286.868" viewBox="0 0 1286.868 1286.868">
  <defs>
    <clipPath id="clip-path">
      <path id="Path_1" data-name="Path 1" d="M273.591,0c151.1,0,273.591,122.491,273.591,273.591S424.691,547.181,273.591,547.181,0,424.691,0,273.591,122.491,0,273.591,0Z" fill="#fc0"/>
    </clipPath>
    <clipPath id="clip-path-2">
      <rect id="Retângulo_8" data-name="Retângulo 8" width="426.774" height="257.552" transform="translate(0 0)" fill="#fff" stroke="#707070" stroke-width="1"/>
    </clipPath>
  </defs>
  <g id="Grupo_32" data-name="Grupo 32" transform="translate(-4184 503)">
    <g id="Grupo_25" data-name="Grupo 25" transform="translate(4184 -503)">
      <rect id="Retângulo_5" data-name="Retângulo 5" width="1287" height="1287" rx="643.5" transform="translate(0)" fill="#ffa200"/>
    </g>
    <g id="Grupo_30" data-name="Grupo 30" transform="translate(4427.947 -380.061)">
      <g id="Componente_5_1" data-name="Componente 5 – 1" transform="translate(5.793 743.549)">
        <text id="STRONG_PAY" data-name="STRONG|PAY" transform="translate(0 136)" fill="#161616" font-size="127" font-family="OpenSans-Semibold, Open Sans" font-weight="600" letter-spacing="-0.06em"><tspan x="0" y="0">STRONG</tspan><tspan y="0" font-family="Swiss721BT-Light, Swis721 Lt BT" font-weight="300" letter-spacing="-0.035em">|</tspan><tspan y="0" font-family="Swiss721BT-Light, Swis721 Lt BT" font-weight="300" letter-spacing="0.078em">PAY</tspan></text>
      </g>
      <g id="Grupo_28" data-name="Grupo 28" transform="translate(0 0)">
        <g id="shnd-logo-2" transform="matrix(0.883, -0.469, 0.469, 0.883, 78.774, 278.043)">
          <path id="Path_1-2" data-name="Path 1" d="M273.705,0C424.868,0,547.41,122.542,547.41,273.7s-122.542,273.7-273.705,273.7S0,424.868,0,273.7,122.542,0,273.705,0Z" fill="#fc0"/>
        </g>
        <g id="Grupo_26" data-name="Grupo 26" transform="matrix(0.883, -0.469, 0.469, 0.883, 37.347, 260.876)">
          <g id="Grupo_20" data-name="Grupo 20" transform="translate(0 0)">
            <g id="Grupo_19" data-name="Grupo 19" transform="translate(0 0)">
              <g id="Grupo_de_máscara_7" data-name="Grupo de máscara 7" clip-path="url(#clip-path)">
                <path id="Path_1-3" data-name="Path 1" d="M273.591,0A273.407,273.407,0,0,1,547.182,273.591c0,151.1-122.491,273.591-273.591,273.591S0,424.691,0,273.591,122.491,0,273.591,0Z" fill="#f60"/>
              </g>
            </g>
          </g>
        </g>
        <g id="Grupo_27" data-name="Grupo 27" transform="translate(0 407.13) rotate(-45)">
          <g id="shnd-logo-2-2" data-name="shnd-logo-2" transform="translate(0 8.255)">
            <path id="Path_1-4" data-name="Path 1" d="M273.7,0c151.163,0,273.7,122.542,273.7,273.7s-122.542,273.7-273.7,273.7S0,424.868,0,273.7,122.542,0,273.7,0Z" transform="translate(0 0)" fill="#ffa200"/>
            <path id="Path_3" data-name="Path 3" d="M156.577,0S245.9,108.688,245.541,109.049s-11.013,19.416-11.013,19.5-23.2,37.817-47.664,59.038S132.34,235.791,76.912,249.873.362,260.706,0,260.706,156.577,0,156.577,0Z" transform="translate(273.524 286.343)" fill="#ffa200"/>
            <path id="Path_2" data-name="Path 2" d="M69.106,0s84.71,122.539,84.928,122.744c0,.68-3.784,23.595-5.669,29.5-4.363,17.3-4.71,16.064-6.695,22.907-5.445,15.1-10.759,26.676-10.759,26.676L40.478,89.082a20.627,20.627,0,0,1-12.014,2.676c-6.656-.708-9.136.273-17.559-5.382S0,75.621,0,75.621Z" transform="translate(390.931 187.656)" fill="#ffa200"/>
            <g id="layer1" transform="translate(70.774 76.552)">
              <path id="path28" d="M43.254,342.089C52.464,316.7,55.775,305.8,54.821,304.025c-.735-1.372-8-12.566-16.135-24.885s-18.047-27.428-22.021-33.581S7.133,230.839,4.308,226.531C-.8,218.74-.815,218.665,1.419,212.35c27.889-78.943,32.774-90.822,41.2-100.215,9.494-10.58,31.436-20.348,45.642-20.321,7.87.017,28.743,6.712,79.119,25.379L183.8,123.28a71.717,71.717,0,0,1,10.11,4.323c1.878,1.625-6.449,15.059-13.989,22.558-12.057,11.988-31.315,18.966-47.672,17.256-4.645-.485-16.359-3.661-26.032-7.059-20.09-7.054-18.236-7.753-23.906,9.019-3.583,10.6-3.64,11.266-1.155,13.577,1.444,1.335,22.571,14.325,46.957,28.87,36.346,21.677,45.711,27.945,51.952,34.774,9.124,9.983,14.43,19.96,18.108,34.038,3.488,13.357,3.448,22.611-.163,36.515a99.206,99.206,0,0,0-2.587,11.366,22.694,22.694,0,0,0,9.85,3.611c4.742,0,9.375-16.574,9.388-33.6q.033-30.092-19.05-56.117c-7.986-10.879-15.247-16.125-56.4-40.754-20.13-12.047-38.154-23.2-40.052-24.782-3.383-2.819-3.388-2.879-.326-2.926,1.719-.029,7.092,1.418,11.942,3.212,7.2,2.662,12.107,3.273,26.729,3.322,16.438.059,18.712-.289,27.616-4.145a125.778,125.778,0,0,0,19.5-11.309c8.691-6.3,10.886-7.186,19.45-7.873a49.793,49.793,0,0,0,15.855-3.939l6.2-3.165,4.766,8.33c9.088,15.888,20.449,23.882,36.219,25.5,5.933.609,10.453-.124,19.487-3.159,6.469-2.174,11.858-3.755,11.974-3.526,8.319,16.9,16.167,25.2,28.042,29.641a70.834,70.834,0,0,0,21.365,3.893c.079.009,11.4-.947,11.366-1.03.144.511-44.655,123.709-55.337,152.275-13.535,13.915-35.852,10.342-43.111,30.671-1.921,5.708-32.5,77.7-33.123,77.074a274.461,274.461,0,0,1-59.85-1.128A258.1,258.1,0,0,1,104.9,452.758c-23.426-8.377-59.9-28.571-83.953-51.23.311,0,11.5-29.679,22.312-59.441ZM328.132,193.052c-5.133-1.938-9.563-7.964-12.541-13.721-6.191-11.962-5.207-16.984,12.7-64.885,1.843-4.931,3.686-8.614,5.538-12.536,4.139-11.438,17.755-5.665,17.647-5.665,13.944,4.358,16.34,5.555,30.032,10.441.032.234,14.52,3.5,9.7,16.61,0,0-3.82,9.332-7.053,18.415s-6.84,19.2-8.016,22.486-2.871,15.209-20.29,27.053c-8.214,5.665-23.416,3.417-27.71,1.8Zm-69.8-26.452c-8.277-3.755-15.1-12.445-17.219-21.93l-1.733-7.759,16.2-44.571c10.064-27.687,17.467-45.844,19.539-47.929,2.455-2.479,5.074-3.358,9.966-3.358,7.839,0,31.016,7.935,37.842,12.957,8.774,6.449,8.377,9.592-6.312,50.181-17.415,48.11-19.52,52.975-24.925,57.573a31.763,31.763,0,0,1-33.365,4.837Zm-52.885-25.382a92.394,92.394,0,0,1,4.222-11.711l4.222-10.373L209.3,117.3c-2.528-1.011-11.312-4.179-19.522-7.044s-15.717-6.006-16.682-6.979c-1.346-1.358,2.226-12.7,15.356-48.754,9.423-25.873,18.511-48.474,20.221-50.3,5.2-5.53,10.11-5.6,25.379-.367C254.6,10.9,259.04,13.47,261.724,19.87c2.484,5.922,1.98,7.93-10.531,42.081-1.956,5.337-8.075,22.129-13.6,37.318s-11.012,29.14-12.193,31c-4.532,7.151-19.952,15.611-19.952,10.947ZM128.577,88.158c-21.636-7.5-26.955-9.882-27.307-12.238-.383-2.557,9.367-32.065,19.025-57.57,3.6-9.5,10.187-16.109,16.068-16.109,5.438,0,36.939,11.718,40.555,15.086,4.307,4.012,5.344,11.634,2.627,19.416-1.254,3.6-5.4,15.28-9.222,25.952s-7.937,22.218-9.151,25.657-3,6.9-3.968,7.685c-1.18.962-10.588-1.628-28.626-7.88Z" transform="translate(0 0)" fill="#ffa200"/>
            </g>
          </g>
        </g>
      </g>
      <g id="Grupo_29" data-name="Grupo 29" transform="translate(285.141 952.094)">
        <rect id="Retângulo_10" data-name="Retângulo 10" width="229.787" height="89.469" rx="44.734" transform="translate(0 0)"/>
        <g id="Componente_4_2" data-name="Componente 4 – 2" transform="translate(55.355 14.161)">
          <text id="BETA" transform="translate(0 49)" fill="#fff" font-size="51" font-family="Swiss721BT-BoldCondensed, Swis721 Cn BT" font-weight="700" letter-spacing="0.078em"><tspan x="0" y="0">BETA</tspan></text>
        </g>
      </g>
    </g>
  </g>
  <g id="Grupo_41" data-name="Grupo 41" transform="translate(395.139 471.461) rotate(-45)">
    <rect id="Retângulo_20" data-name="Retângulo 20" width="15.599" height="96.568" rx="7.8" transform="translate(147.255 3.33)"/>
    <rect id="Retângulo_25" data-name="Retângulo 25" width="15.599" height="100.282" rx="7.8" transform="translate(100.421 80.02) rotate(90)"/>
    <rect id="Retângulo_26" data-name="Retângulo 26" width="15.762" height="86.031" rx="7.881" transform="translate(15.762 167.264) rotate(180)"/>
    <rect id="Retângulo_23" data-name="Retângulo 23" width="15.599" height="93.596" rx="7.8" transform="translate(147.962 152.674)"/>
    <rect id="Retângulo_24" data-name="Retângulo 24" width="15.599" height="163.422" rx="7.8" transform="translate(163.561 152.674) rotate(90)"/>
    <rect id="Retângulo_21" data-name="Retângulo 21" width="15.762" height="196.957" rx="7.881" transform="translate(297.684 114.992) rotate(51)"/>
    <rect id="Retângulo_22" data-name="Retângulo 22" width="15.762" height="196.957" rx="7.881" transform="matrix(-0.629, 0.777, -0.777, -0.629, 307.604, 123.949)"/>
  </g>
  <g id="Grupo_42" data-name="Grupo 42" transform="translate(885.828 611.924) rotate(135)">
    <rect id="Retângulo_20-2" data-name="Retângulo 20" width="15.762" height="95.901" rx="7.881" transform="translate(147.607 3.025)"/>
    <rect id="Retângulo_25-2" data-name="Retângulo 25" width="15.762" height="100.025" rx="7.881" transform="translate(100.173 153.578) rotate(90)"/>
    <rect id="Retângulo_26-2" data-name="Retângulo 26" width="15.762" height="86.031" rx="7.881" transform="translate(15.836 169.267) rotate(180)"/>
    <rect id="Retângulo_23-2" data-name="Retângulo 23" width="15.762" height="92.954" rx="7.881" transform="translate(147.607 152.989)"/>
    <rect id="Retângulo_24-2" data-name="Retângulo 24" width="15.762" height="163.37" rx="7.881" transform="translate(163.37 83.163) rotate(90)"/>
    <rect id="Retângulo_21-2" data-name="Retângulo 21" width="15.762" height="196.957" rx="7.881" transform="translate(297.758 113.578) rotate(51)"/>
    <rect id="Retângulo_22-2" data-name="Retângulo 22" width="15.762" height="196.957" rx="7.881" transform="matrix(-0.629, 0.777, -0.777, -0.629, 307.678, 122.535)"/>
  </g>
</svg>
